<?xml version="1.0" standalone="no"?>
<!DOCTYPE svg PUBLIC "-//W3C//DTD SVG 20010904//EN"
 "http://www.w3.org/TR/2001/REC-SVG-20010904/DTD/svg10.dtd">
<svg version="1.0" xmlns="http://www.w3.org/2000/svg"
 width="500.000000pt" height="500.000000pt" viewBox="0 0 500.000000 500.000000"
 preserveAspectRatio="xMidYMid meet">

<g transform="translate(0.000000,500.000000) scale(0.100000,-0.100000)"
fill="#000000" stroke="none">
<path d="M2541 3917 c-11 -74 -21 -141 -21 -150 0 -10 14 -17 43 -22 23 -3 50
-9 59 -11 13 -4 18 4 23 40 7 44 8 45 39 40 79 -14 95 -24 106 -64 13 -47 11
-46 77 -55 l51 -7 -5 44 c-3 24 -10 48 -15 54 -6 8 2 22 22 42 22 22 30 40 30
65 0 71 -60 102 -250 132 -58 9 -112 19 -121 21 -14 4 -20 -17 -38 -129z m254
13 c15 -6 25 -17 25 -30 0 -25 -21 -28 -111 -16 -44 6 -45 8 -41 37 5 31 5 31
54 25 27 -4 60 -11 73 -16z"/>
<path d="M2186 4010 c-66 -11 -121 -22 -124 -25 -5 -5 34 -285 41 -291 1 -1
28 3 61 8 l58 10 -5 42 -6 42 90 17 c50 9 104 24 120 33 38 19 61 70 50 109
-18 70 -98 85 -285 55z m160 -75 c10 -26 -14 -43 -78 -54 -34 -6 -63 -9 -65
-7 -2 2 -5 16 -6 32 -2 26 2 30 33 35 67 12 110 10 116 -6z"/>
<path d="M1775 3878 c-28 -17 -51 -32 -53 -33 -1 -1 20 -39 48 -84 28 -44 47
-81 43 -81 -4 0 -58 17 -120 37 l-113 37 -44 -24 c-97 -52 -96 -39 -10 -178
41 -67 79 -122 85 -122 7 0 45 22 98 57 2 1 -14 30 -36 65 -74 117 -79 112 60
65 l123 -40 59 38 c33 20 61 39 63 40 3 2 -110 190 -142 237 -11 15 -16 14
-61 -14z"/>
<path d="M3039 3885 c-53 -29 -85 -106 -69 -166 21 -75 157 -163 255 -163 85
0 145 62 145 149 0 71 -43 119 -150 169 -62 29 -139 34 -181 11z m188 -107
c44 -41 14 -128 -44 -128 -31 0 -79 25 -87 45 -34 89 61 149 131 83z"/>
<path d="M3432 3643 c-62 -30 -99 -104 -82 -164 20 -70 99 -157 167 -185 22
-10 33 -20 30 -29 -3 -7 3 -21 14 -31 20 -18 22 -18 71 35 l51 53 -61 61 c-58
58 -63 61 -79 44 -13 -13 -14 -19 -5 -29 22 -22 12 -29 -18 -13 -40 21 -62 57
-58 96 4 42 45 74 83 65 31 -8 75 -52 75 -75 0 -9 22 -38 49 -65 52 -51 61
-49 61 17 0 72 -84 177 -173 218 -51 23 -82 23 -125 2z"/>
<path d="M1332 3547 l-42 -43 105 -104 105 -104 45 44 45 44 -102 103 c-57 57
-105 103 -108 103 -3 0 -25 -19 -48 -43z"/>
<path d="M2355 3559 c-393 -53 -757 -333 -902 -694 -56 -140 -75 -226 -80
-377 -11 -270 49 -481 197 -697 282 -411 799 -587 1281 -435 358 113 642 410
746 778 21 75 26 120 30 256 4 108 1 188 -7 235 -80 453 -423 815 -870 916
-100 23 -296 32 -395 18z m65 -40 c-19 -12 -48 -34 -65 -49 l-30 -28 -65 14
c-36 7 -78 14 -95 14 -29 0 -28 1 15 21 64 29 145 47 215 48 l60 1 -35 -21z
m201 7 c30 -8 77 -23 104 -34 l49 -19 -53 -12 c-29 -6 -87 -26 -129 -43 -86
-36 -108 -36 -194 -4 l-60 23 38 32 c43 34 124 70 164 70 14 1 50 -5 81 -13z
m147 -17 c34 -11 60 -25 57 -30 -6 -9 -22 -4 -95 30 -58 27 -41 27 38 0z m187
-96 c57 -39 66 -48 48 -51 -14 -2 -44 13 -80 39 -78 56 -80 59 -57 59 10 0 51
-21 89 -47z m-695 26 c27 -6 48 -14 45 -18 -2 -5 -48 -11 -102 -15 -54 -3
-124 -12 -155 -20 -32 -7 -58 -12 -58 -10 0 2 24 19 52 39 45 30 61 35 110 35
31 0 80 -5 108 -11z m589 -11 c20 -12 51 -33 69 -47 l34 -25 -29 -14 c-15 -8
-42 -28 -59 -44 l-32 -30 -42 22 c-23 12 -88 37 -144 55 l-101 33 50 23 c117
52 198 61 254 27z m181 -13 c37 -19 113 -76 108 -81 -10 -9 -74 21 -125 59
-29 22 -53 42 -53 44 0 6 40 -7 70 -22z m-1045 -20 c-37 -32 -124 -80 -132
-72 -11 11 134 107 162 107 6 0 -8 -16 -30 -35z m362 19 c-3 -3 -12 -4 -19 -1
-8 3 -5 6 6 6 11 1 17 -2 13 -5z m-67 -29 c0 -3 -8 -22 -19 -43 -17 -35 -51
-154 -51 -181 0 -23 -94 -120 -122 -126 -17 -4 -59 5 -116 24 -58 20 -109 31
-146 31 -32 0 -56 4 -56 10 0 17 62 109 117 176 55 65 75 75 208 99 72 14 185
19 185 10z m172 -16 c17 -9 13 -15 -39 -51 -32 -22 -86 -65 -120 -95 -49 -43
-63 -51 -63 -36 0 31 30 125 53 167 l22 38 64 -6 c35 -4 73 -11 83 -17z m187
-38 c122 -42 183 -70 177 -84 -2 -7 -10 -30 -17 -52 -7 -22 -14 -42 -15 -43
-1 -2 -37 26 -79 63 -42 36 -104 84 -137 106 -76 48 -53 52 71 10z m-74 -30
c33 -22 95 -69 138 -106 68 -59 77 -70 77 -101 l0 -34 -47 7 c-65 10 -318 10
-425 0 l-88 -7 0 40 c0 37 5 44 78 106 91 79 171 134 192 134 8 0 42 -18 75
-39z m477 -29 c35 -37 73 -82 86 -99 l22 -31 -32 -13 c-26 -10 -34 -10 -53 2
-98 61 -192 120 -204 127 -12 7 -10 12 10 31 24 23 74 50 95 51 6 0 40 -31 76
-68z m97 -16 c47 -47 83 -87 81 -90 -3 -2 -16 -7 -30 -10 -20 -5 -29 -1 -47
26 -12 18 -49 61 -82 96 -56 58 -58 62 -34 62 19 0 49 -23 112 -84z m-1289 3
c-28 -34 -65 -86 -82 -115 -16 -30 -31 -54 -33 -54 -7 0 35 112 56 149 17 30
74 73 107 80 1 1 -20 -27 -48 -60z m1350 -10 c11 -22 20 -39 18 -39 -2 0 -28
25 -58 56 -54 55 -55 55 -19 38 22 -10 45 -32 59 -55z m105 -60 c4 -5 2 -9 -4
-9 -5 0 -16 -3 -25 -6 -10 -4 -21 7 -35 35 -12 22 -21 43 -21 46 0 8 77 -52
85 -66z m-1540 44 c-4 -10 -17 -47 -30 -82 -19 -56 -26 -65 -57 -76 -20 -6
-58 -25 -84 -40 l-47 -28 44 63 c37 53 162 180 177 180 2 0 1 -8 -3 -17z
m1159 -33 c47 -28 98 -61 113 -74 l27 -24 -62 -31 c-34 -17 -73 -31 -87 -31
-30 0 -115 74 -115 99 0 19 30 111 36 111 2 0 42 -23 88 -50z m435 -64 c19
-20 22 -31 16 -58 -15 -69 -25 -63 -108 69 -6 10 2 13 31 13 28 0 45 -7 61
-24z m-101 -29 c6 -21 15 -64 18 -95 l5 -57 -40 74 c-22 41 -45 79 -51 85 -15
15 -12 24 8 29 34 9 47 1 60 -36z m-50 -58 c23 -40 42 -76 42 -79 0 -3 -34 26
-75 64 -74 69 -75 70 -53 83 13 7 28 11 33 9 6 -1 29 -36 53 -77z m-1006 9
c-5 -5 -20 -8 -32 -6 -23 3 -23 3 6 38 l29 34 3 -28 c2 -16 -1 -33 -6 -38z
m638 2 c0 -4 -11 -5 -25 -2 -19 3 -25 11 -25 30 l0 25 25 -23 c14 -13 25 -27
25 -30z m329 -46 c45 -42 80 -78 78 -80 -2 -3 -29 7 -59 20 -30 13 -95 37
-143 52 l-88 27 54 28 c30 15 59 28 66 29 6 0 48 -34 92 -76z m156 -52 l-19
-37 -8 60 c-4 33 -10 71 -13 85 -4 18 4 11 26 -23 l32 -48 -18 -37z m135 29
c27 -46 48 -86 46 -89 -3 -2 -23 -1 -45 3 -35 6 -45 13 -66 50 -24 40 -25 46
-13 89 7 25 15 43 20 38 4 -4 30 -45 58 -91z m-1497 58 c37 -12 64 -25 60 -29
-4 -3 -35 -14 -68 -24 -33 -10 -100 -36 -149 -57 -49 -22 -91 -39 -94 -39 -9
0 10 107 26 144 l16 39 71 -6 c38 -3 101 -15 138 -28z m-253 4 c-1 -10 -15
-59 -33 -110 -29 -82 -37 -95 -77 -124 -25 -18 -66 -55 -92 -81 -27 -27 -48
-43 -48 -36 0 30 21 137 36 185 19 61 87 132 157 163 52 24 57 24 57 3z m1023
1 l45 -6 5 -47 c3 -34 0 -49 -12 -59 -9 -7 -81 -59 -160 -115 -79 -56 -149
-106 -155 -110 -7 -6 -50 30 -119 98 l-108 107 -6 58 c-6 65 -8 63 72 73 53 7
391 7 438 1z m135 -26 c18 -16 15 -21 -27 -45 l-39 -22 -6 31 c-10 52 -8 55
27 50 17 -2 38 -9 45 -14z m-658 -43 l0 -55 -50 32 c-56 37 -61 59 -15 69 64
14 65 14 65 -46z m856 -1 c108 -36 202 -81 184 -87 -8 -2 -62 -14 -119 -27
l-105 -22 -20 28 c-75 102 -94 132 -88 138 9 10 59 0 148 -30z m-994 20 c3 -3
-27 -55 -68 -115 -61 -92 -154 -266 -190 -357 -9 -23 -10 -23 -32 -5 -17 14
-27 41 -41 118 -11 55 -21 129 -23 165 l-3 65 75 38 c67 33 238 96 266 97 6 0
13 -2 16 -6z m928 -156 c0 -6 -128 -48 -148 -48 -5 0 -13 10 -16 23 -3 12 -12
44 -21 70 l-14 48 46 29 47 30 53 -73 c29 -39 53 -75 53 -79z m-841 103 c57
-39 59 -42 70 -103 7 -35 26 -103 42 -151 16 -49 29 -91 29 -95 0 -4 -30 -21
-67 -36 -38 -16 -120 -55 -183 -86 l-115 -57 -57 42 -57 42 43 95 c23 52 57
121 76 153 37 67 150 235 157 235 2 0 30 -18 62 -39z m1220 -6 l20 -35 -22 0
c-12 0 -33 -3 -46 -7 l-23 -6 23 41 c13 23 25 42 26 42 0 0 10 -16 22 -35z
m-568 -80 c10 -33 19 -63 19 -67 0 -4 -21 -14 -47 -22 -27 -8 -106 -35 -178
-60 -110 -39 -131 -44 -143 -32 -12 11 2 25 90 88 156 113 222 157 232 155 5
-2 17 -30 27 -62z m-1132 11 c-9 -8 -10 -7 -5 7 3 10 7 24 7 30 1 7 3 4 6 -7
3 -10 -1 -23 -8 -30z m708 -126 l46 -51 -34 -29 c-19 -16 -30 -29 -25 -30 6 0
20 10 32 21 16 15 29 19 41 14 15 -6 11 -11 -22 -26 -22 -10 -47 -16 -56 -13
-9 2 -22 -2 -29 -11 -7 -8 -16 -15 -21 -15 -11 0 -68 179 -76 239 l-6 46 52
-47 c29 -26 73 -70 98 -98z m861 94 c-18 -25 -55 -71 -83 -101 l-50 -55 -42
73 c-23 41 -40 75 -38 77 3 3 220 50 238 51 5 1 -7 -20 -25 -45z m182 6 c11
-21 20 -42 20 -45 0 -3 -20 9 -44 27 -24 18 -52 38 -62 45 -16 10 -13 12 23
12 40 1 44 -2 63 -39z m85 15 c31 -30 31 -47 2 -80 l-22 -26 -32 65 -33 66 31
0 c18 0 39 -9 54 -25z m-1812 -82 c3 -43 14 -113 22 -156 9 -43 15 -80 13 -81
-1 -2 -29 2 -61 8 l-59 11 7 65 c14 137 40 230 65 230 4 0 10 -35 13 -77z
m1567 -83 c-6 -41 -15 -91 -20 -110 -9 -34 -43 -66 -59 -55 -18 11 -65 137
-55 150 5 7 38 47 74 90 l65 78 3 -39 c2 -21 -1 -73 -8 -114z m129 116 c25
-19 55 -44 66 -56 19 -20 18 -21 -4 -43 -14 -13 -25 -18 -27 -11 -3 6 -24 41
-48 77 -24 37 -42 67 -39 67 3 0 26 -15 52 -34z m-45 -146 c5 -33 3 -37 -36
-62 -23 -15 -44 -25 -46 -24 -2 2 4 44 12 92 9 49 16 107 17 129 1 39 2 38 24
-30 12 -38 25 -86 29 -105z m-296 87 c23 -40 42 -77 42 -83 0 -5 -25 -34 -55
-64 l-55 -55 -25 30 c-32 39 -111 192 -104 200 7 6 126 43 145 44 6 1 29 -32
52 -72z m348 -40 c12 -22 13 -32 3 -43 -23 -27 -36 -13 -53 59 -10 39 -20 79
-23 87 -6 18 52 -63 73 -103z m-1772 81 c-4 -13 -14 -72 -23 -132 -16 -106
-17 -110 -44 -117 -16 -4 -43 -19 -61 -33 l-33 -25 -7 46 c-15 112 -13 117 73
204 82 81 108 97 95 57z m1931 -83 l7 -50 -31 35 c-35 41 -37 47 -14 72 21 23
28 12 38 -57z m-2118 43 c-3 -8 -6 -5 -6 6 -1 11 2 17 5 13 3 -3 4 -12 1 -19z
m1414 -30 c13 -28 45 -82 71 -119 l46 -68 -72 -68 c-110 -104 -206 -186 -211
-181 -3 3 -25 45 -49 94 -24 49 -71 130 -104 181 l-60 91 141 50 c147 53 198
70 208 71 3 1 16 -22 30 -51z m-1424 -60 c-2 -13 -4 -3 -4 22 0 25 2 35 4 23
2 -13 2 -33 0 -45z m2102 -106 c12 -45 19 -92 16 -103 -9 -28 -19 -15 -40 51
-9 30 -29 81 -43 113 -24 56 -24 58 -6 78 19 21 19 21 35 -18 8 -21 26 -75 38
-121z m16 85 c25 -43 33 -91 17 -101 -5 -3 -16 20 -25 52 -9 31 -19 65 -22 75
-13 32 4 17 30 -26z m-95 -41 c16 -36 38 -96 49 -134 l19 -70 -26 -25 c-32
-29 -65 -47 -86 -47 -13 0 -16 15 -16 88 0 48 -5 116 -11 152 -10 61 -9 65 13
82 13 10 24 18 26 18 2 0 16 -29 32 -64z m-937 -32 c46 -66 157 -273 157 -291
0 -9 -121 -63 -140 -63 -23 0 -198 296 -212 359 -3 14 116 72 137 67 6 -1 32
-33 58 -72z m620 21 c15 -31 27 -61 27 -69 0 -7 -22 -25 -48 -39 l-49 -26 -38
39 -39 40 54 55 c30 30 57 55 60 55 3 0 18 -25 33 -55z m232 -47 c3 -40 7
-107 8 -148 2 -72 1 -75 -22 -78 -13 -2 -43 2 -66 8 -39 11 -44 16 -55 56 -11
38 -10 54 4 107 15 55 22 65 64 94 26 17 50 32 54 32 3 1 9 -32 13 -71z
m-1926 -17 c6 -38 7 -70 1 -80 -7 -13 -9 -11 -14 9 -14 72 -15 152 0 137 2 -1
7 -31 13 -66z m911 -53 c29 -56 76 -138 106 -182 29 -45 50 -84 46 -88 -10 -9
-319 -118 -335 -118 -7 0 -27 28 -43 62 -16 34 -46 86 -66 115 -21 30 -38 56
-38 58 0 9 267 255 277 255 1 0 25 -46 53 -102z m-140 45 c-30 -26 -88 -79
-128 -117 l-72 -70 -35 34 c-19 19 -35 37 -35 41 0 7 88 52 245 125 39 18 72
33 75 34 2 0 -20 -21 -50 -47z m-514 16 c41 -11 45 -14 58 -59 13 -43 13 -55
-3 -106 -14 -50 -24 -63 -64 -92 -27 -19 -50 -32 -53 -29 -10 10 -24 133 -24
215 0 93 0 92 86 71z m1904 -103 c0 -49 -3 -86 -7 -83 -12 13 -22 102 -16 150
9 75 23 35 23 -67z m-2010 36 c0 -38 5 -106 11 -151 10 -74 9 -84 -6 -102 -10
-10 -21 -19 -25 -19 -10 0 -65 126 -85 195 -21 70 -12 95 42 124 60 32 63 29
63 -47z m1630 37 c-12 -42 -17 -45 -25 -18 -5 16 -2 26 11 36 24 17 24 18 14
-18z m-1816 -149 c-5 -36 -8 -41 -15 -25 -10 25 -11 142 -2 175 11 38 26 -94
17 -150z m1559 51 c-49 -24 -122 -59 -163 -78 l-75 -34 80 73 c44 40 100 92
125 115 l45 42 38 -37 37 -37 -87 -44z m-1177 88 c3 -6 2 -15 -4 -21 -6 -6
-11 -2 -15 11 -5 22 7 29 19 10z m1401 -32 c9 -29 3 -70 -12 -85 -5 -5 -95 59
-95 68 0 8 71 49 86 50 6 0 15 -15 21 -33z m-1323 -13 l49 -36 -49 -29 -49
-29 -13 32 c-13 31 -9 98 6 98 4 0 29 -17 56 -36z m1251 -51 c42 -30 53 -42
49 -58 -23 -80 -176 -356 -242 -434 l-29 -35 -58 40 c-57 39 -59 41 -71 104
-8 36 -26 103 -41 150 -15 47 -27 89 -28 93 0 5 56 34 125 66 69 31 148 69
175 84 28 14 54 26 58 27 5 0 32 -17 62 -37z m-1585 -182 c18 -37 18 -39 1
-55 -10 -9 -20 -16 -23 -16 -7 0 -40 99 -62 184 -11 43 -12 65 -5 79 9 16 15
6 40 -67 16 -48 38 -104 49 -125z m2039 92 c1 -23 -3 -44 -8 -47 -11 -7 -24
140 -14 157 9 14 22 -48 22 -110z m-1776 57 c3 -13 -1 -24 -14 -30 -21 -12
-24 -3 -13 37 7 26 19 23 27 -7z m164 -2 c18 -18 33 -37 33 -43 0 -6 -25 -35
-55 -65 l-54 -54 -31 69 c-17 37 -28 70 -25 73 11 11 81 51 90 52 5 0 24 -14
42 -32z m1263 -7 c0 -11 -3 -11 -14 -1 -8 6 -12 18 -9 27 5 12 7 12 14 1 5 -7
9 -19 9 -27z m309 -82 c1 -60 -2 -70 -32 -108 -34 -43 -127 -125 -134 -118 -2
2 3 46 12 98 8 52 15 108 15 125 0 28 5 33 44 48 24 9 52 26 62 37 17 19 19
19 25 2 4 -10 8 -48 8 -84z m-312 63 c15 -9 40 -114 48 -202 3 -36 8 -84 11
-107 l5 -42 -73 -35 c-77 -37 -245 -96 -272 -96 -9 0 -16 4 -16 8 0 4 33 57
73 118 39 60 99 167 132 237 33 70 65 127 70 127 6 0 15 -4 22 -8z m-1751
-159 c-2 -2 -13 12 -25 32 -14 24 -21 52 -20 83 l0 47 25 -79 c13 -44 22 -81
20 -83z m371 86 l32 -70 -77 -94 c-71 -86 -77 -91 -80 -67 -2 15 4 78 13 141
15 97 22 118 43 138 14 13 28 23 31 23 3 0 20 -32 38 -71z m1500 41 l36 0 -7
-80 c-9 -97 -37 -212 -53 -217 -7 -3 -14 14 -18 44 -7 59 -32 208 -41 246 -6
26 -5 27 20 17 15 -5 43 -10 63 -10z m-1236 -143 c23 -43 37 -82 33 -86 -15
-13 -135 -43 -149 -37 -8 3 -32 38 -54 78 l-40 73 57 58 57 58 27 -33 c16 -17
46 -68 69 -111z m-386 61 c-7 -35 -16 -92 -20 -128 l-8 -65 -14 40 c-8 22 -20
66 -28 98 l-13 57 41 30 c23 16 45 29 48 30 4 0 1 -28 -6 -62z m979 -3 c20
-48 67 -237 61 -244 -7 -7 -185 170 -185 185 0 9 96 94 106 94 2 0 10 -16 18
-35z m-103 -15 c-32 -27 -51 -31 -51 -10 0 7 65 39 80 39 3 0 -10 -13 -29 -29z
m970 -50 l-9 -45 -1 42 c-1 44 11 91 16 63 2 -8 -1 -35 -6 -60z m-1923 -27
c11 -43 19 -79 17 -81 -1 -2 -21 27 -45 63 -39 63 -40 68 -23 81 10 7 21 14
24 14 3 0 15 -35 27 -77z m-183 31 c24 -32 26 -38 15 -60 -19 -35 -27 -30 -39
26 -18 83 -16 86 24 34z m1079 20 c4 -9 5 -18 4 -19 -2 -1 -32 -24 -68 -51
-36 -27 -110 -79 -165 -117 l-99 -67 -17 57 c-9 32 -18 64 -20 72 -3 9 36 28
131 61 74 27 153 55 175 63 51 20 52 20 59 1z m-613 -80 c28 -48 36 -70 28
-75 -7 -4 -53 -15 -103 -24 -50 -9 -99 -19 -108 -22 -10 -2 -18 0 -18 4 0 13
151 195 157 189 3 -2 23 -35 44 -72z m1607 9 c-13 -110 -35 -170 -79 -218 -37
-40 -126 -95 -155 -95 -15 0 -7 37 31 142 22 62 34 82 64 102 20 14 61 50 91
81 30 30 55 55 55 55 1 0 -2 -30 -7 -67z m-1878 -99 c0 -7 -73 48 -112 85
l-28 25 22 23 21 23 49 -76 c26 -41 48 -77 48 -80z m1005 39 l109 -108 4 -61
4 -61 -44 -6 c-176 -24 -475 -18 -503 10 -8 8 -15 32 -15 53 0 38 2 40 118
119 64 45 140 99 167 120 28 22 50 40 51 40 0 1 49 -47 109 -106z m-1125 -9
c16 -37 30 -68 30 -71 0 -7 -55 9 -77 23 -27 17 -30 54 -7 89 9 14 18 25 20
25 2 0 17 -30 34 -66z m108 -43 c32 -17 27 -31 -13 -31 -32 0 -37 4 -61 52
l-26 51 39 -30 c21 -17 48 -35 61 -42z m532 3 c11 -36 20 -70 20 -74 0 -12
-82 -60 -92 -54 -5 3 -31 38 -59 77 l-50 71 73 22 c40 12 76 22 80 23 4 1 16
-29 28 -65z m-142 -63 c28 -43 52 -81 52 -85 0 -15 -56 -3 -166 35 -64 22
-133 48 -153 58 l-35 19 59 12 c33 6 85 18 115 25 30 7 60 13 65 14 6 0 34
-35 63 -78z m1291 42 c0 -5 -4 -17 -9 -28 -8 -18 -9 -17 -9 8 -1 15 4 27 9 27
6 0 10 -3 9 -7z m-1773 -23 c18 0 31 -12 52 -46 28 -45 29 -46 13 -89 -15 -42
-15 -43 -32 -21 -20 26 -89 150 -89 160 0 5 7 5 16 2 9 -3 27 -6 40 -6z m1731
-48 c-2 -32 -12 -74 -22 -92 l-17 -33 -76 6 c-43 3 -105 16 -139 28 l-63 23
103 36 c56 20 125 48 152 63 28 14 54 26 59 27 5 0 6 -26 3 -58z m-1609 26
c-8 -13 -18 -29 -22 -36 -6 -11 -13 -7 -27 15 -26 39 -24 43 22 43 40 0 41 0
27 -22z m36 -118 l6 -45 -31 48 -32 48 19 35 19 35 6 -38 c4 -21 9 -58 13 -83z
m121 84 c22 -9 80 -29 129 -44 l89 -27 -63 -31 -63 -32 -46 39 c-25 22 -66 60
-91 86 -48 49 -47 49 45 9z m1052 -51 c-7 -8 -29 -16 -49 -19 -34 -6 -35 -5
-41 32 -13 76 -12 77 48 37 46 -31 53 -40 42 -50z m-1079 -124 c-7 -5 -22 -8
-33 -7 -21 3 -35 43 -49 143 l-7 50 51 -89 c40 -69 49 -91 38 -97z m91 43 c8
-4 -13 -19 -36 -26 -19 -6 -27 3 -62 63 -63 107 -60 112 20 36 40 -38 76 -71
78 -73z m309 84 l3 -38 -33 7 c-18 4 -39 13 -46 20 -11 10 -7 16 20 33 43 28
52 24 56 -22z m-514 -74 c25 -34 46 -64 46 -67 0 -3 -17 -5 -37 -5 -46 0 -73
24 -73 64 0 31 10 79 15 74 2 -2 24 -31 49 -66z m1717 10 c-38 -57 -124 -142
-163 -163 -18 -10 -18 -9 -5 18 8 15 22 51 31 78 15 47 20 52 65 68 27 9 59
26 72 37 41 34 41 22 0 -38z m-384 19 c48 -17 116 -33 150 -37 l62 -6 -36 -57
c-43 -67 -117 -157 -147 -176 -33 -22 -138 -46 -239 -54 -51 -4 -93 -7 -95 -6
-1 1 9 26 22 56 14 30 31 85 38 122 11 56 22 77 57 118 38 44 68 66 93 68 4 1
46 -12 95 -28z m-859 -34 l42 -43 -15 -51 c-9 -29 -20 -55 -26 -58 -10 -7
-113 50 -188 106 l-45 32 65 33 c80 42 109 39 167 -19z m666 12 c-28 -30 -29
-30 -32 -8 -4 24 12 39 42 39 17 0 16 -4 -10 -31z m-628 6 c12 -30 -2 -35 -25
-11 l-24 26 22 0 c12 0 24 -7 27 -15z m522 -116 c-99 -89 -206 -161 -228 -154
-28 9 -164 111 -227 171 -45 42 -52 53 -46 77 6 28 7 28 57 21 65 -9 364 -6
436 4 l55 7 3 -39 c3 -37 -1 -43 -50 -87z m526 44 c-23 -77 -61 -131 -107
-154 l-42 -22 28 34 c15 19 51 69 79 112 29 42 53 77 54 77 1 0 -4 -21 -12
-47z m-1260 -21 c39 -27 90 -59 114 -72 23 -13 41 -29 39 -34 -5 -15 -66 -55
-95 -63 -19 -4 -33 3 -68 38 -47 46 -124 141 -124 153 0 7 37 24 54 25 5 1 41
-21 80 -47z m-138 -9 c9 -16 47 -58 82 -95 64 -67 65 -68 36 -68 -24 0 -46 17
-114 85 -82 82 -83 84 -59 94 34 14 35 14 55 -16z m580 -146 c30 -18 54 -35
54 -39 0 -15 -281 78 -301 100 -4 4 2 30 13 59 l20 52 81 -70 c44 -39 104 -84
133 -102z m328 91 c-8 -35 -25 -83 -38 -108 -22 -42 -27 -45 -67 -48 -46 -4
-119 13 -119 27 0 4 21 22 48 39 26 17 79 58 117 91 39 33 71 60 72 60 1 1 -5
-27 -13 -61z m-1000 16 c9 -20 15 -38 13 -40 -2 -3 -24 14 -48 35 l-44 40 31
1 c25 0 33 -6 48 -36z m122 -102 c-12 -11 -64 32 -85 70 l-24 43 56 -54 c31
-30 55 -57 53 -59z m377 4 c45 -19 104 -40 130 -46 26 -7 49 -16 52 -20 9 -15
-178 -80 -230 -80 -20 0 -165 88 -165 100 0 3 15 11 33 18 19 7 44 23 57 37
13 14 27 25 32 25 4 0 45 -15 91 -34z m887 -11 c0 -10 -58 -58 -93 -76 -40
-21 -87 -40 -87 -36 0 8 108 84 139 99 43 20 41 19 41 13z m-1163 -70 c29 -21
51 -41 49 -43 -12 -11 -166 80 -166 99 0 14 66 -17 117 -56z m48 26 c3 -5 33
-28 66 -50 49 -33 56 -41 38 -41 -23 0 -142 70 -154 91 -4 5 5 9 19 9 14 0 27
-4 31 -9z m960 -21 c-4 -6 -24 -22 -46 -35 -31 -20 -52 -25 -106 -25 -73 0
-143 15 -143 30 0 6 33 10 73 10 39 1 101 7 137 14 84 18 92 18 85 6z m-384
-27 c27 -10 49 -21 49 -25 0 -14 -104 -76 -148 -89 -50 -14 -123 -3 -220 33
l-55 21 82 23 c45 14 99 33 119 44 42 23 94 21 173 -7z m66 1 c-3 -3 -12 -4
-19 -1 -8 3 -5 6 6 6 11 1 17 -2 13 -5z m148 -54 l40 -1 -35 -19 c-50 -26
-142 -48 -230 -56 l-75 -6 51 26 c27 14 62 39 77 54 28 29 28 29 80 15 28 -7
70 -13 92 -13z m-565 -36 c45 -20 49 -23 21 -18 -47 9 -122 42 -96 43 11 0 45
-11 75 -25z"/>
<path d="M3730 3274 c-69 -36 -128 -68 -132 -72 -4 -4 7 -31 23 -59 l30 -53
38 20 38 19 21 -45 c28 -56 28 -82 0 -111 l-22 -23 32 -68 c17 -37 34 -86 38
-110 4 -33 11 -43 30 -48 27 -7 28 -11 45 -118 12 -76 12 -79 -10 -95 -21 -16
-21 -20 -10 -90 8 -53 8 -85 0 -116 -6 -24 -11 -46 -11 -48 0 -3 35 -13 78
-22 42 -10 81 -20 86 -23 5 -3 -35 -19 -90 -36 l-99 -32 -12 -44 -12 -45 82
-78 c45 -43 73 -76 62 -73 -117 30 -149 37 -159 33 -11 -5 -40 -106 -33 -113
2 -2 65 -18 141 -36 156 -36 147 -39 166 54 l13 60 -88 88 c-48 48 -83 90 -79
92 5 3 52 20 105 37 53 17 103 37 111 44 13 10 52 136 45 144 -1 1 -65 16
-142 34 -77 17 -141 32 -143 34 -2 2 222 204 241 216 5 4 6 31 2 66 l-7 60
-111 48 c-62 27 -131 57 -155 67 l-43 19 26 30 c14 17 25 38 25 47 0 12 3 13
12 4 23 -23 77 -14 109 17 49 49 36 109 -64 293 l-53 97 -124 -65z m150 -145
c31 -65 30 -92 -3 -87 -13 2 -32 25 -53 63 l-33 60 22 12 c12 7 26 12 30 13 4
0 21 -27 37 -61z m113 -467 l37 -17 -36 -28 c-19 -16 -38 -26 -41 -23 -3 3 -9
23 -13 46 -8 45 -4 47 53 22z"/>
<path d="M1108 3277 l-26 -54 85 -42 c47 -23 83 -44 80 -47 -3 -3 -58 -18
-121 -33 -64 -16 -118 -30 -120 -32 -2 -2 -18 -32 -35 -66 l-31 -62 108 -55
c165 -85 166 -70 -11 -155 l-155 -73 -6 -45 c-3 -25 -6 -52 -6 -59 0 -7 55
-59 123 -115 67 -56 125 -105 130 -109 4 -3 -54 -23 -130 -43 -75 -21 -139
-40 -141 -42 -10 -9 32 -137 47 -144 9 -5 59 -21 111 -36 52 -16 99 -32 103
-35 5 -4 -20 -38 -54 -76 -114 -125 -104 -103 -83 -184 16 -63 21 -71 39 -66
190 50 265 73 265 82 0 6 -7 33 -15 61 l-15 51 -88 -24 c-48 -13 -89 -24 -92
-24 -2 0 30 35 73 78 l78 79 -11 44 -11 45 -105 28 c-58 16 -104 30 -102 31 2
2 40 13 86 25 89 24 90 25 72 92 -7 24 -8 61 -2 103 8 62 7 67 -15 83 -23 17
-23 18 -11 110 10 86 14 94 38 107 23 12 28 23 33 67 4 31 20 78 38 112 17 31
30 59 27 61 -2 2 -41 24 -88 49 -73 39 -81 45 -59 50 13 3 69 17 124 29 l100
24 32 59 c18 32 33 64 33 69 0 9 -240 135 -258 135 -4 0 -20 -24 -34 -53z
m-65 -731 c-7 -12 -15 -9 -46 14 l-39 29 44 19 43 18 3 -33 c2 -18 0 -39 -5
-47z"/>
<path d="M3665 1749 c-15 -28 -23 -54 -19 -59 9 -8 244 -140 249 -140 2 0 17
24 33 54 l29 54 -128 71 c-70 39 -129 71 -132 71 -2 0 -16 -23 -32 -51z"/>
<path d="M1200 1701 c-110 -58 -103 -193 15 -314 51 -52 100 -72 150 -63 63
12 125 83 125 143 0 42 -43 126 -92 179 -68 74 -131 91 -198 55z m155 -127
c63 -68 -6 -167 -86 -124 -20 11 -49 60 -49 83 0 8 9 26 21 41 28 36 81 36
114 0z"/>
<path d="M3587 1612 c-20 -21 -37 -41 -37 -45 0 -4 30 -37 68 -73 l67 -65
-130 5 -130 5 -48 -53 -48 -54 68 -64 c37 -36 86 -81 109 -101 l41 -36 42 43
43 44 -71 68 c-39 37 -70 68 -69 68 2 1 59 -1 128 -5 l125 -7 51 55 51 56
-106 98 c-57 55 -108 99 -111 99 -3 0 -23 -17 -43 -38z"/>
<path d="M1580 1331 c-25 -16 -85 -55 -134 -86 l-90 -57 54 -33 c30 -19 59
-30 65 -26 5 4 37 28 70 53 33 24 65 47 71 51 8 4 7 -18 -2 -76 -19 -115 -18
-120 17 -141 l31 -18 81 55 c45 31 82 55 84 54 1 -2 -6 -46 -16 -98 l-18 -94
51 -33 c61 -39 58 -44 75 123 6 66 14 131 17 145 4 21 -3 30 -41 54 l-45 28
-80 -62 c-89 -68 -89 -68 -65 40 21 96 20 102 -25 128 -21 12 -43 22 -47 22
-4 0 -28 -13 -53 -29z"/>
<path d="M3173 1249 c-29 -11 -74 -40 -102 -65 -27 -24 -55 -42 -63 -39 -7 3
-21 0 -31 -7 -17 -12 -16 -17 14 -73 18 -33 34 -62 35 -64 3 -3 132 65 142 74
2 2 1 13 -3 25 -5 15 -12 19 -26 15 -31 -10 -22 12 15 34 47 29 90 27 115 -5
27 -34 27 -68 1 -94 -25 -25 -65 -41 -84 -34 -8 3 -36 -6 -62 -20 -81 -42 -81
-42 -44 -61 85 -44 265 28 316 126 46 89 -29 210 -130 208 -23 0 -64 -9 -93
-20z"/>
<path d="M1920 515 c0 -62 14 -71 51 -34 l21 21 22 -21 c12 -12 35 -21 52 -21
l29 1 -35 29 c-29 25 -32 32 -20 39 8 5 24 17 35 25 19 15 19 15 -11 16 -17 0
-43 -9 -57 -20 -14 -11 -30 -20 -36 -20 -6 0 -11 9 -11 20 0 13 -7 20 -20 20
-18 0 -20 -7 -20 -55z"/>
<path d="M2126 554 c-21 -21 -20 -57 2 -77 22 -20 91 -22 116 -4 21 16 24 60
6 82 -17 21 -103 20 -124 -1z m89 -39 c0 -31 -49 -28 -53 3 -3 20 0 23 25 20
20 -2 28 -8 28 -23z"/>
<path d="M2280 515 l0 -55 63 0 c67 0 91 11 102 47 11 40 -25 63 -100 63 l-65
0 0 -55z m115 0 c0 -15 -8 -21 -32 -23 -30 -3 -33 -1 -33 23 0 24 3 26 33 23
24 -2 32 -8 32 -23z"/>
<path d="M2460 515 l0 -55 70 0 c56 0 70 3 70 15 0 11 -12 15 -45 15 -25 0
-45 5 -45 10 0 6 16 10 35 10 47 0 45 18 -2 23 l-38 4 43 1 c30 2 42 6 42 17
0 12 -14 15 -65 15 l-65 0 0 -55z"/>
<path d="M2620 515 c0 -48 3 -55 19 -55 13 0 21 8 23 23 2 16 11 23 31 25 23
3 27 0 27 -22 0 -21 5 -26 25 -26 24 0 25 3 25 55 0 52 -1 55 -25 55 -18 0
-25 -5 -25 -20 0 -16 -7 -20 -30 -20 -23 0 -30 4 -30 20 0 13 -7 20 -20 20
-18 0 -20 -7 -20 -55z"/>
<path d="M2790 515 l0 -55 70 0 c56 0 70 3 70 15 0 11 -12 15 -46 15 -27 0
-43 4 -39 10 3 6 19 10 36 10 42 0 36 18 -8 23 l-38 4 43 1 c30 2 42 6 42 17
0 12 -14 15 -65 15 l-65 0 0 -55z"/>
<path d="M2950 515 c0 -52 1 -55 25 -55 16 0 25 6 25 15 0 9 9 15 24 15 13 0
26 -7 30 -15 3 -8 14 -15 24 -15 16 0 19 8 19 43 1 59 -9 67 -83 67 l-64 0 0
-55z m100 15 c0 -5 -11 -10 -25 -10 -14 0 -25 5 -25 10 0 6 11 10 25 10 14 0
25 -4 25 -10z"/>
</g>
</svg>
